<?xml version="1.0" encoding="utf-8"?>
<!-- Generated by Mocodo 4.2.12 -->
<svg width="524" height="120" viewBox="0 0 524 120" xmlns="http://www.w3.org/2000/svg">
<rect x="0" y="0" width="524" height="120" fill="#f7f7f7" stroke="none" stroke-width="0"/>

<!-- Association CONTIENT -->
<g>
	<line x1="45" y1="60" x2="152" y2="60" stroke="#8073ac" stroke-width="2"/>
	<line x1="262" y1="60" x2="152" y2="60" stroke="#8073ac" stroke-width="2"/>
	<g>
		<path d="M177 35 a14 14 90 0 1 14 14 V60 h-78 V49 a14 14 90 0 1 14 -14" fill="#b2abd2" stroke="#b2abd2" stroke-width="0"/>
		<path d="M191 60 v11 a14 14 90 0 1 -14 14 H127 a14 14 90 0 1 -14 -14 V60 H78" fill="#d8daeb" stroke="#d8daeb" stroke-width="0"/>
		<rect x="113" y="35" width="78" height="50" fill="none" rx="14" stroke="#8073ac" stroke-width="2"/>
		<line x1="113" y1="60" x2="191" y2="60" stroke="#8073ac" stroke-width="1"/>
		<text x="120" y="52.75" fill="#000000" font-family="Verdana" font-size="12">CONTIENT</text>
	</g>
	<text x="86" y="77" fill="#b35806" font-family="Verdana" font-size="12">0,N</text>
	<text x="197" y="77" fill="#b35806" font-family="Verdana" font-size="12">1,1</text>
</g>

<!-- Association POSSEDE -->
<g>
	<line x1="262" y1="60" x2="370" y2="60" stroke="#8073ac" stroke-width="2"/>
	<line x1="477" y1="60" x2="370" y2="60" stroke="#8073ac" stroke-width="2"/>
	<g>
		<path d="M393 35 a14 14 90 0 1 14 14 V60 h-74 V49 a14 14 90 0 1 14 -14" fill="#b2abd2" stroke="#b2abd2" stroke-width="0"/>
		<path d="M407 60 v11 a14 14 90 0 1 -14 14 H347 a14 14 90 0 1 -14 -14 V60 H74" fill="#d8daeb" stroke="#d8daeb" stroke-width="0"/>
		<rect x="333" y="35" width="74" height="50" fill="none" rx="14" stroke="#8073ac" stroke-width="2"/>
		<line x1="333" y1="60" x2="407" y2="60" stroke="#8073ac" stroke-width="1"/>
		<text x="341" y="52.75" fill="#000000" font-family="Verdana" font-size="12">POSSEDE</text>
	</g>
	<text x="306" y="77" fill="#b35806" font-family="Verdana" font-size="12">0,N</text>
	<text x="412" y="77" fill="#b35806" font-family="Verdana" font-size="12">0,N</text>
</g>

<!-- Entity LISTE -->
<g>
	<g>
		<rect x="9" y="18" width="72" height="25" fill="#fdb863" stroke="none" stroke-width="0" opacity="1"/>
		<rect x="9" y="43" width="72" height="59" fill="#fee0b6" stroke="none" stroke-width="0" opacity="1"/>
		<rect x="9" y="18" width="72" height="84" fill="none" stroke="#e08214" stroke-width="2" opacity="1"/>
		<line x1="9" y1="43" x2="81" y2="43" stroke="#e08214" stroke-width="1"/>
	</g>
	<text x="27" y="35.75" fill="#000000" font-family="Verdana" font-size="12">LISTE</text>
	<text x="14" y="60.8" fill="#000000" font-family="Verdana" font-size="12">code_liste</text>
	<line x1="14" y1="63" x2="76" y2="63" stroke="#000000" stroke-width="1"/>
	<text x="14" y="77.8" fill="#000000" font-family="Verdana" font-size="12">titre</text>
	<text x="14" y="94.8" fill="#000000" font-family="Verdana" font-size="12">position</text>
</g>

<!-- Entity CARTE -->
<g>
	<g>
		<rect x="223" y="9" width="78" height="25" fill="#fdb863" stroke="none" stroke-width="0" opacity="1"/>
		<rect x="223" y="34" width="78" height="77" fill="#fee0b6" stroke="none" stroke-width="0" opacity="1"/>
		<rect x="223" y="9" width="78" height="102" fill="none" stroke="#e08214" stroke-width="2" opacity="1"/>
		<line x1="223" y1="34" x2="301" y2="34" stroke="#e08214" stroke-width="1"/>
	</g>
	<text x="242" y="26.75" fill="#000000" font-family="Verdana" font-size="12">CARTE</text>
	<text x="228" y="51.8" fill="#000000" font-family="Verdana" font-size="12">code_carte</text>
	<line x1="228" y1="54" x2="295" y2="54" stroke="#000000" stroke-width="1"/>
	<text x="228" y="68.8" fill="#000000" font-family="Verdana" font-size="12">contenu</text>
	<text x="228" y="85.8" fill="#000000" font-family="Verdana" font-size="12">position</text>
	<text x="228" y="102.8" fill="#000000" font-family="Verdana" font-size="12">couleur</text>
</g>

<!-- Entity LABEL -->
<g>
	<g>
		<rect x="439" y="18" width="76" height="25" fill="#fdb863" stroke="none" stroke-width="0" opacity="1"/>
		<rect x="439" y="43" width="76" height="59" fill="#fee0b6" stroke="none" stroke-width="0" opacity="1"/>
		<rect x="439" y="18" width="76" height="84" fill="none" stroke="#e08214" stroke-width="2" opacity="1"/>
		<line x1="439" y1="43" x2="515" y2="43" stroke="#e08214" stroke-width="1"/>
	</g>
	<text x="458" y="35.75" fill="#000000" font-family="Verdana" font-size="12">LABEL</text>
	<text x="444" y="60.8" fill="#000000" font-family="Verdana" font-size="12">code_label</text>
	<line x1="444" y1="63" x2="509" y2="63" stroke="#000000" stroke-width="1"/>
	<text x="444" y="77.8" fill="#000000" font-family="Verdana" font-size="12">nom</text>
	<text x="444" y="94.8" fill="#000000" font-family="Verdana" font-size="12">couleur</text>
</g>
</svg>